<?xml version="1.0" standalone="no"?>
<!DOCTYPE svg PUBLIC "-//W3C//DTD SVG 20010904//EN"
 "http://www.w3.org/TR/2001/REC-SVG-20010904/DTD/svg10.dtd">
<svg version="1.0" xmlns="http://www.w3.org/2000/svg"
 width="860.000000pt" height="1038.000000pt" viewBox="0 0 860.000000 1038.000000"
 preserveAspectRatio="xMidYMid meet">

<g transform="translate(0.000000,1038.000000) scale(0.100000,-0.100000)"
fill="#000000" stroke="none">
<path d="M6527 9958 c-34 -26 -31 -68 8 -143 32 -60 39 -84 51 -189 33 -295
70 -885 80 -1281 8 -333 15 -315 -114 -296 -99 14 -172 7 -202 -18 -13 -10
-24 -40 -33 -85 -15 -85 -36 -105 -71 -65 -31 36 -40 96 -21 149 22 64 19 124
-7 155 -52 59 -148 33 -148 -41 0 -40 19 -79 53 -111 15 -14 27 -39 31 -64 12
-78 -30 -80 -84 -4 -81 114 -133 142 -180 95 -43 -43 -11 -178 74 -314 62 -99
63 -143 7 -195 -21 -20 -70 -49 -112 -65 -149 -59 -201 -102 -387 -320 -179
-210 -427 -488 -478 -538 -22 -20 -52 -42 -67 -47 -18 -7 -144 -11 -337 -11
-402 0 -481 -8 -841 -84 -291 -62 -362 -68 -924 -76 -437 -6 -516 -9 -553 -23
-67 -26 -97 -51 -159 -139 -106 -151 -223 -267 -408 -406 -198 -148 -617 -413
-801 -506 -132 -66 -164 -71 -370 -56 -159 12 -175 12 -199 -4 -19 -13 -25
-24 -23 -44 5 -48 47 -55 379 -60 279 -4 299 -3 340 16 24 10 145 101 269 201
561 454 940 756 991 790 l56 38 174 6 c96 4 309 7 474 7 476 1 1106 18 1275
35 331 33 376 32 353 -9 -4 -8 -61 -62 -126 -121 -167 -151 -237 -238 -302
-370 -36 -71 -76 -135 -115 -180 -123 -142 -153 -201 -175 -348 -8 -49 -21
-99 -29 -112 -9 -13 -47 -43 -86 -65 -38 -23 -86 -60 -106 -82 -50 -56 -114
-192 -114 -242 0 -71 -5 -69 201 -57 508 31 566 49 829 261 153 123 234 180
437 307 105 66 235 154 288 194 138 106 175 129 207 129 27 0 28 -2 28 -45 0
-26 -7 -59 -15 -74 -23 -46 -95 -102 -196 -155 -52 -27 -121 -67 -154 -89 -34
-23 -239 -218 -470 -446 -614 -608 -616 -610 -910 -716 -100 -36 -124 -74
-351 -555 -163 -346 -556 -1120 -742 -1460 -104 -190 -203 -342 -241 -370 -30
-21 -45 -54 -56 -127 -9 -56 -49 -117 -297 -444 -226 -299 -240 -327 -198
-369 18 -18 30 -21 64 -17 61 8 109 66 356 439 213 320 215 323 252 326 47 4
54 13 72 98 19 93 84 236 362 794 422 848 652 1270 737 1347 12 12 57 35 99
53 115 47 152 78 177 147 12 32 28 77 37 101 19 52 -23 20 749 576 445 321
639 466 688 517 99 101 428 602 517 784 97 201 120 219 218 175 58 -26 65 -50
59 -195 -4 -104 -9 -132 -38 -210 -29 -81 -32 -100 -32 -195 2 -263 79 -390
424 -702 236 -213 297 -282 493 -558 141 -198 264 -320 321 -320 52 0 71 76
38 148 -9 21 -76 96 -149 167 -91 89 -160 168 -218 250 -125 174 -187 243
-418 461 -114 107 -215 209 -225 227 -15 28 -17 79 -18 452 -2 431 -10 569
-46 764 -35 192 -20 323 44 377 58 49 92 58 222 58 144 0 267 -24 460 -91 215
-74 252 -83 348 -83 108 0 129 8 261 103 143 104 135 100 238 92 105 -8 128 3
128 63 0 29 -8 43 -45 78 -48 46 -118 73 -145 57 -8 -6 -24 -28 -35 -49 l-20
-39 -190 -1 c-170 -1 -195 -3 -235 -22 -65 -29 -111 -36 -172 -22 -29 6 -142
18 -251 25 -150 11 -208 19 -241 33 -92 41 -145 173 -98 244 23 35 48 54 165
122 115 67 148 108 155 191 7 80 -3 114 -59 206 -51 86 -99 192 -99 222 0 22
426 363 585 469 179 119 509 281 738 363 88 32 104 50 93 109 -6 31 -11 36
-36 36 -61 0 -319 -106 -579 -238 -238 -120 -402 -246 -689 -528 -91 -90 -174
-164 -183 -164 -43 0 -44 12 -64 755 -8 292 -17 577 -20 635 -20 366 -64 592
-120 614 -26 10 -60 7 -78 -6z"/>
</g>
</svg>
